<?xml version="1.0" encoding="utf-8"?>
<!-- Generator: Adobe Illustrator 27.2.0, SVG Export Plug-In . SVG Version: 6.00 Build 0)  -->
<svg version="1.1" id="Layer_1" xmlns="http://www.w3.org/2000/svg" xmlns:xlink="http://www.w3.org/1999/xlink" x="0px" y="0px"
	 viewBox="0 0 667.49896 667.4989" style="enable-background:new 0 0 667.49896 667.4989;" xml:space="preserve">
<style type="text/css">
	.st0{fill:none;}
	.st1{fill:#FFFFFF;}
	.st2{fill:#C8D2E9;}
	.st3{fill:#07529A;}
</style>
<rect class="st0" width="667.4989" height="667.4989"/>
<g>
	<rect x="124.97953" class="st1" width="107.24033" height="463.39731"/>
	<rect class="st2" width="107.24033" height="463.39731"/>
</g>
<g>
	<path class="st3" d="M211.02322,177.30663h-11.5938v26.05936c-3.29733,1.06345-6.91374,1.70193-11.062,1.70193
		c-15.8484,0-24.88945-9.67912-24.88945-26.27229c0-14.46567,7.44559-27.12311,25.84677-27.12311
		c6.59465,0,12.87016,1.27637,18.50749,3.51018l2.44643-10.63655c-5.95647-1.80824-12.87021-2.97832-20.10304-2.97832
		c-25.63402,0-39.14238,15.95468-39.14238,38.8231c0,21.69865,12.87021,34.99428,35.95145,34.99428
		c8.19012,0,16.91203-1.59563,24.03853-4.36101v-33.71761V177.30663z"/>
	<path class="st3" d="M175.92908,69.35836c1.59547-0.10631,5.42462-0.10631,6.91373-0.10631
		c12.33836,0,17.33752,4.25468,17.33752,11.59368c0,6.80743-4.78642,11.91293-15.6357,11.91293
		c-2.76549,0-6.80737-0.21263-8.61557-0.42525V69.35838L175.92908,69.35836z M175.92908,39.04432
		c2.55276-0.10631,5.53099-0.31925,8.19012-0.31925c10.53015,0,13.72112,4.57393,13.72112,10.53024
		c0,7.12637-4.89281,11.38105-15.10387,11.38105c-2.97823,0-4.89279,0-6.80736-0.10631V39.04432H175.92908z M164.13684,101.79989
		c7.9774,0.10601,14.57204,0.31894,19.5712,0.31894c20.95393,0,28.61223-11.80631,28.61223-21.91129
		c0-8.72169-5.42462-14.57199-13.7211-16.38024v-0.10631c7.12646-2.76538,11.2747-9.04093,11.2747-16.1673
		c0-11.27474-8.08376-17.97586-24.99583-17.97586c-10.10469,0-20.74121,0.42556-20.74121,0.42556v71.79651H164.13684z"/>
	<path class="st3" d="M207.30331,255.62621c-3.93552-0.85081-8.93469-1.38269-12.97652-1.38269
		c-16.38031,0-25.95312,8.29643-25.95312,20.42198c0,23.18768,31.80319,17.86923,31.80319,32.97339
		c0,7.44531-5.95647,10.42361-14.04019,10.42361c-5.42459,0-11.16835-1.16974-15.74213-2.9783l-1.27631,11.0621
		c4.5737,1.27637,10.31738,2.02087,16.38023,2.02087c17.44391,0,26.9104-9.14725,26.9104-21.69867
		c0-23.29367-32.01596-18.40082-32.01596-32.97278c0-5.95663,4.36099-9.67941,13.1893-9.67941
		c4.25461,0,8.72192,0.74451,12.55112,2.02087L207.30331,255.62621z"/>
	<polygon class="st3" points="210.68829,440.77438 210.68829,430.88202 182.92702,430.88202 182.92702,408.54578 
		208.34834,408.54578 208.34834,399.07898 182.92702,399.07898 182.92702,378.65698 210.68829,378.65698 210.68829,368.97787 
		171.33333,368.97787 171.33333,440.77438 	"/>
</g>
<g>
	<path class="st1" d="M270.60632,160.50082c-9.89197-1.06345-15.21021,5.53107-17.55026,12.65742h-0.21274
		c0.74454-4.04175,1.06367-8.72198,1.06367-11.7h-10.84926v52.86353h11.38104v-21.48573
		c0-15.84866,5.10553-23.18797,15.63571-21.1671L270.60632,160.50082z"/>
	<path class="st1" d="M308.96033,191.66566c0,7.23299-5.21191,14.78493-12.87021,14.78493
		c-4.46732,0-7.23285-3.08463-7.23285-7.12637c0-4.99918,4.36099-9.25386,20.10303-9.25386v1.59531H308.96033z M320.66046,214.32176
		c-0.21274-4.46761-0.31909-9.89236-0.31909-14.46597v-20.95386c0-11.48737-4.89276-18.50742-20.52844-18.50742
		c-6.48831,0-13.40204,1.59563-19.14575,3.72281l1.8082,8.61568c4.99918-2.02087,11.16837-3.51018,16.06113-3.51018
		c7.76468,0,10.4238,3.51018,10.4238,10.63655v2.55275c-19.35846,0-31.16504,6.38187-31.16504,18.2948
		c0,8.61568,5.74377,14.6783,14.78476,14.6783c8.40286,0,14.99756-4.67995,17.55026-10.9558l0.10635,0.10661
		c-0.42545,2.87199-0.5318,6.38187-0.5318,9.78574h10.9556L320.66046,214.32176z"/>
	<path class="st1" d="M368.6312,186.45386c0,10.53024-5.10553,19.57117-13.08295,19.57117
		c-7.23279,0-10.53015-5.95631-10.53015-16.59286c0-14.25305,6.16925-19.7841,15.21024-19.7841
		c2.7655,0,5.53098,0.31924,8.40286,0.95743v15.84836V186.45386z M379.90594,214.32176v-77.6465H368.6312v24.35742
		c-2.87189-0.31894-5.31827-0.42557-7.76468-0.42557c-17.76297,0-27.76132,12.12585-27.76132,29.88878
		c0,15.31648,6.3819,24.8893,19.35846,24.8893c8.19012,0,14.35928-4.46732,17.2312-10.9558h0.21271
		c-0.5318,2.97861-0.74457,7.12668-0.74457,9.89236H379.90594z"/>
	<path class="st1" d="M440.85312,214.32178v-52.86353h-11.38104v25.42117c0,10.63655-5.85007,19.03931-13.82745,19.03931
		c-6.06281,0-7.87106-3.93544-7.87106-10.52994v-33.93053h-11.27475v37.01485c0,9.25386,3.72281,16.91211,15.74213,16.91211
		c8.93466,0,15.31656-4.67995,18.40115-11.48737h0.10635c-0.53183,2.97832-0.74454,7.55193-0.74454,10.42393h10.84921V214.32178z"/>
	<path class="st1" d="M484.88834,191.66566c0,7.23299-5.21194,14.78493-12.87021,14.78493
		c-4.46732,0-7.23285-3.08463-7.23285-7.12637c0-4.99918,4.36099-9.25386,20.10303-9.25386v1.59531H484.88834z M496.5885,214.32176
		c-0.21271-4.46761-0.31909-9.89236-0.31909-14.46597v-20.95386c0-11.48737-4.89279-18.50742-20.52844-18.50742
		c-6.48825,0-13.40201,1.59563-19.14575,3.72281l1.80826,8.61568c4.99918-2.02087,11.16837-3.51018,16.06113-3.51018
		c7.76462,0,10.42377,3.51018,10.42377,10.63655v2.55275c-19.35846,0-31.16501,6.38187-31.16501,18.2948
		c0,8.61568,5.74368,14.6783,14.78476,14.6783c8.40283,0,14.99747-4.67995,17.55023-10.9558l0.10638,0.10661
		c-0.42548,2.87199-0.5318,6.38187-0.5318,9.78574h10.95557V214.32176z"/>
	<path class="st1" d="M539.34723,204.85529c-2.02087,0.53157-4.3609,0.85081-6.70099,0.85081
		c-5.21191,0-6.70099-2.1272-6.70099-9.25386v-26.16597h13.72113v-8.828h-13.72107v-19.89043l-11.38104,3.08463v16.8058h-9.89197
		v8.828h9.89197v28.5061c0,12.01924,3.51001,16.48656,14.78467,16.48656c3.40375,0,7.55194-0.53188,10.74292-1.27637
		l-0.74463-9.14725V204.85529z"/>
	<path class="st1" d="M559.23761,181.77393c0.95734-8.19012,5.63739-12.87036,12.01935-12.87036
		c6.70099,0,10.84924,4.57393,10.63647,12.87036h-22.65576H559.23761z M590.18988,203.5789
		c-5.3183,1.80794-10.53015,2.76538-15.74207,2.76538c-10.53015,0-15.31665-5.53107-15.31665-16.8058h33.82422
		c0,0,0.31909-3.40356,0.31909-7.02007c0-12.12555-6.27563-22.12392-21.37939-22.12392
		c-15.31665,0-24.35767,12.01924-24.35767,27.8676c0,18.61404,9.04102,27.12309,25.52765,27.12309
		c6.16919,0,12.65741-1.27637,18.50757-3.29726l-1.38275-8.50906V203.5789z"/>
	<path class="st1" d="M278.70163,75.31467c0,12.33849-5.74374,17.86954-13.61478,17.86954
		c-8.40283,0-13.29565-6.27556-13.29565-17.76292c0-11.91293,5.31827-17.97586,13.50839-17.97586
		C273.70245,57.44542,278.70163,63.82729,278.70163,75.31467z M290.50815,74.46386c0-18.18818-9.57285-26.59123-24.25125-26.59123
		c-17.01842,0-26.27222,12.4448-26.27222,28.39948c0,18.18848,9.57288,26.59123,24.25128,26.59123
		C281.25439,102.86334,290.50815,90.41885,290.50815,74.46386z"/>
	<path class="st1" d="M347.09442,101.79989V65.10368c0-10.21099-4.25461-17.23105-15.84842-17.23105
		c-8.82831,0-15.21021,4.67994-18.29483,11.48737h-0.10635c0.53183-2.97831,0.74457-7.55193,0.74457-10.42362h-10.84927v52.86353
		h11.38107V76.48475c0-10.95549,6.06281-19.14561,13.82748-19.14561c6.06284,0,7.87103,3.93544,7.87103,10.63655v33.82422h11.27469
		L347.09442,101.79989z"/>
	<path class="st1" d="M408.04169,101.79989V65.10368c0-10.21099-4.25461-17.23105-15.84839-17.23105
		c-8.82831,0-15.21024,4.67994-18.29483,11.48737h-0.10635c0.53183-2.97831,0.74457-7.55193,0.74457-10.42362h-10.84927v52.86353
		h11.3811V76.48475c0-10.95549,6.06284-19.14561,13.82748-19.14561c6.06284,0,7.871,3.93544,7.871,10.63655v33.82422h11.27475
		L408.04169,101.79989z"/>
	<path class="st1" d="M277.2514,315.82874c-3.40363,1.48932-7.23276,2.34012-11.38104,2.34012
		c-10.42377,0-13.82748-7.33899-13.82748-17.01843c0-10.84918,4.78647-18.18817,13.7211-18.18817
		c3.93558,0,7.87103,0.95712,11.06195,2.23349l1.91464-9.78543c-3.93552-1.383-8.40289-2.02118-12.55112-2.02118
		c-15.74205,0-26.05951,10.42392-26.05951,29.03766c0,18.82666,9.89198,25.5278,23.50677,25.5278
		c5.53098,0,10.95557-0.8508,15.31656-2.65936L277.2514,315.82874z"/>
	<path class="st1" d="M334.9054,327.10376v-37.01514c0-9.25385-3.72281-16.91211-15.74197-16.91211
		c-8.61569,0-14.89117,4.36099-17.97577,11.0621l-0.21271-0.10663c0.74457-2.9783,0.95728-7.33899,0.95728-10.63626v-24.03848
		h-11.38104v77.64651h11.38104v-25.42148c0-10.63654,5.85007-19.03931,13.82748-19.03931
		c6.06284,0,7.87103,3.93546,7.87103,10.52994v33.93085H334.9054z"/>
	<path class="st1" d="M385.85443,300.61856c0,12.3385-5.74384,17.86954-13.61478,17.86954
		c-8.40289,0-13.29562-6.27557-13.29562-17.76291c0-11.91293,5.31827-17.97586,13.50833-17.97586
		C380.85526,282.74933,385.85443,289.1312,385.85443,300.61856z M397.6608,299.76776c0-18.18817-9.57281-26.59122-24.25119-26.59122
		c-17.01843,0-26.27222,12.44479-26.27222,28.39948c0,18.18848,9.57288,26.59122,24.25125,26.59122
		c17.01843,0,26.27213-12.44449,26.27213-28.39948H397.6608z"/>
	<path class="st1" d="M444.24887,300.61856c0,12.3385-5.74377,17.86954-13.61472,17.86954
		c-8.40289,0-13.29568-6.27557-13.29568-17.76291c0-11.91293,5.31827-17.97586,13.50839-17.97586
		C439.24969,282.74933,444.24887,289.1312,444.24887,300.61856z M456.05548,299.76776
		c0-18.18817-9.57288-26.59122-24.25134-26.59122c-17.01843,0-26.27222,12.44479-26.27222,28.39948
		c0,18.18848,9.57288,26.59122,24.25134,26.59122C446.8017,328.16724,456.05548,315.72275,456.05548,299.76776z"/>
	<rect x="468.28741" y="249.45728" class="st1" width="11.38104" height="77.64648"/>
	<path class="st1" d="M553.80493,300.61856c0,12.3385-5.74359,17.86954-13.61462,17.86954
		c-8.40283,0-13.29559-6.27557-13.29559-17.76291c0-11.91293,5.31812-17.97586,13.5083-17.97586
		C548.80591,282.74933,553.80493,289.1312,553.80493,300.61856z M565.61157,299.76776
		c0-18.18817-9.57288-26.59122-24.25128-26.59122c-17.01843,0-26.27216,12.44479-26.27216,28.39948
		c0,18.18848,9.57281,26.59122,24.25116,26.59122c17.01843,0,26.27222-12.44449,26.27222-28.39948H565.61157z"/>
	<path class="st1" d="M605.49847,274.24026h-13.72101v-3.93573c0-8.61569,3.08453-12.33817,9.67914-12.33817
		c3.72284,0,7.44562,1.06345,7.44562,1.06345l0.85095-9.46649c0,0-4.14832-0.85081-8.29657-0.85081
		c-13.29559,0-20.95386,6.91374-20.95386,22.33656v3.19125h-10.10468v8.828h10.10468v44.03552h11.27472v-44.03552h13.72101v-8.828
		V274.24026z"/>
	<path class="st1" d="M277.26089,429.49933c-3.40372,1.48932-7.23285,2.34012-11.38104,2.34012
		c-10.42377,0-13.82748-7.33899-13.82748-17.01843c0-10.84918,4.78641-18.18817,13.72101-18.18817
		c3.93558,0,7.87103,0.95712,11.0621,2.23349l1.9144-9.78543c-3.93542-1.383-8.40274-2.02118-12.55096-2.02118
		c-15.74205,0-26.05951,10.42392-26.05951,29.03766c0,18.82666,9.89191,25.5278,23.50662,25.5278
		c5.53107,0,10.95566-0.8508,15.31665-2.65936L277.26089,429.49933z"/>
	<path class="st1" d="M325.64117,414.28915c0,12.3385-5.74384,17.86954-13.61472,17.86954
		c-8.40289,0-13.29578-6.27557-13.29578-17.76291c0-11.91293,5.31827-17.97586,13.50839-17.97586
		c8.40289,0,13.40207,6.38187,13.40207,17.86923H325.64117z M337.44763,413.43835c0-18.18817-9.57297-26.59122-24.25125-26.59122
		c-17.01843,0-26.27213,12.44479-26.27213,28.39948c0,18.18848,9.57281,26.59122,24.2511,26.59122
		C328.19379,441.83783,337.44763,429.39334,337.44763,413.43835z"/>
	<path class="st1" d="M394.03394,440.77438v-36.6962c0-10.211-4.25467-17.23105-15.84836-17.23105
		c-8.82846,0-15.21033,4.67993-18.2948,11.48737h-0.10648c0.53171-2.9783,0.74466-7.55194,0.74466-10.42361h-10.84933v52.86353
		h11.38104v-25.31516c0-10.95547,6.06277-19.1456,13.82748-19.1456c6.06293,0,7.87103,3.93542,7.87103,10.63654v33.82422h11.27475
		V440.77438z"/>
	<path class="st1" d="M444.98291,414.28915c0,12.3385-5.74384,17.86954-13.61472,17.86954
		c-8.40289,0-13.29578-6.27557-13.29578-17.76291c0-11.91293,5.31827-17.97586,13.50839-17.97586
		c8.40289,0,13.40207,6.38187,13.40207,17.86923H444.98291z M456.78937,413.43835c0-18.18817-9.57281-26.59122-24.25125-26.59122
		c-17.01843,0-26.27213,12.44479-26.27213,28.39948c0,18.18848,9.57281,26.59122,24.2511,26.59122
		C447.53568,441.83783,456.78937,429.39334,456.78937,413.43835z"/>
	<path class="st1" d="M545.28522,440.77438v-36.6962c0-10.211-4.14819-17.23105-15.74207-17.23105
		c-9.57281,0-15.42297,6.38187-17.76291,11.38104c-1.06375-6.48819-5.42459-11.38104-14.57199-11.38104
		c-8.19028,0-14.78476,4.57361-17.86938,11.59369l-0.21277-0.10632c0.53186-3.19095,0.74466-7.55194,0.74466-10.42361h-10.84933
		v52.86353h11.38104v-25.20886c0-11.16812,6.27557-19.25192,13.50839-19.25192c5.85016,0,7.65839,3.93546,7.65839,10.63654v33.82422
		h11.16824v-25.20886c0-11.69998,6.80743-19.25192,13.61487-19.25192c5.84998,0,7.65826,3.93542,7.65826,10.63654v33.82422h11.2746
		V440.77438z"/>
	<path class="st1" d="M573.25928,440.77438v-52.86353h-11.38104v52.86353H573.25928z M574.85492,371.42401
		c0-3.93542-3.29742-7.12637-7.23297-7.12637c-4.04187,0-7.33917,3.19095-7.33917,7.12637
		c0,4.04205,3.29724,7.12668,7.33917,7.12668C571.55756,378.55069,574.85492,375.35944,574.85492,371.42401z"/>
	<path class="st1" d="M622.71906,429.49933c-3.40356,1.48932-7.23285,2.34012-11.38104,2.34012
		c-10.42377,0-13.82751-7.33899-13.82751-17.01843c0-10.84918,4.78656-18.18817,13.72119-18.18817
		c3.93542,0,7.87103,0.95712,11.06195,2.23349l1.91455-9.78543c-3.93542-1.383-8.40289-2.02118-12.55109-2.02118
		c-15.74188,0-26.05951,10.42392-26.05951,29.03766c0,18.82666,9.89203,25.5278,23.50677,25.5278
		c5.53107,0,10.95563-0.8508,15.31647-2.65936L622.71906,429.49933z"/>
	<path class="st1" d="M663.77612,387.80453c-3.08459-0.53186-6.70099-0.95743-10.10468-0.95743
		c-14.35938,0-21.37939,7.12637-21.37939,15.84836c0,18.18848,23.40027,12.97668,23.40027,23.4003
		c0,4.25467-3.40375,6.70111-9.78558,6.70111c-4.04187,0-8.93463-0.8508-12.33832-2.1272l-0.74463,9.67911
		c3.40375,0.8508,7.97736,1.48901,12.33832,1.48901c14.67847,0,22.33685-7.44562,22.33685-16.69919
		c0-18.08218-23.61322-13.08298-23.61322-23.4003c0-3.82913,3.08459-6.27585,9.14752-6.27585
		c3.40375,0,7.02008,0.63818,10.10468,1.48932L663.77612,387.80453z"/>
</g>
</svg>

